<?xml version="1.0" encoding="UTF-8" standalone="no"?><svg xmlns="http://www.w3.org/2000/svg" xmlns:xlink="http://www.w3.org/1999/xlink" fill="#000000" height="462.8" preserveAspectRatio="xMidYMid meet" version="1" viewBox="0.0 0.0 478.8 462.8" width="478.8" zoomAndPan="magnify"><g id="change1_1"><path d="M460.21,176.49c-3.13-5.37-6.37-10.92-7.5-14.4c-1.29-3.98-1.96-10.39-2.67-17.17 c-1.69-16.15-3.8-36.25-16.93-54.29c-13.21-18.15-31.75-26.36-46.65-32.96c-6.16-2.73-11.98-5.31-15.22-7.67 c-3.12-2.27-7.3-6.95-11.73-11.91c-10.91-12.22-24.49-27.44-46.1-34.45C305.97,1.22,297.91,0,289.43,0 c-11.85,0-22.75,2.32-32.37,4.36c-6.81,1.45-13.25,2.82-17.65,2.82s-10.83-1.37-17.65-2.82C212.15,2.32,201.25,0,189.4,0 c-8.47,0-16.54,1.22-23.98,3.64c-21.61,7.02-35.19,22.23-46.1,34.45c-4.42,4.96-8.6,9.64-11.72,11.91 c-3.24,2.36-9.06,4.94-15.24,7.67c-14.89,6.59-33.42,14.8-46.64,32.96c-13.13,18.04-15.24,38.14-16.93,54.3 c-0.71,6.79-1.38,13.19-2.67,17.16c-1.13,3.48-4.37,9.03-7.51,14.4C10.33,190.71,0,208.39,0,231.39c0,23,10.33,40.68,18.62,54.9 c3.13,5.37,6.38,10.92,7.5,14.4c1.29,3.97,1.96,10.38,2.67,17.17c1.69,16.15,3.8,36.26,16.93,54.29 c13.21,18.15,31.74,26.36,46.65,32.96c6.16,2.73,11.98,5.31,15.22,7.67c3.12,2.27,7.3,6.95,11.72,11.91 c10.91,12.22,24.49,27.44,46.1,34.45c7.44,2.42,15.51,3.64,23.98,3.64c11.86,0,22.76-2.32,32.38-4.36 c6.81-1.45,13.24-2.82,17.64-2.82c4.4,0,10.83,1.37,17.65,2.82c9.61,2.04,20.51,4.36,32.37,4.36c8.47,0,16.54-1.22,23.97-3.64 c21.61-7.02,35.19-22.23,46.1-34.46c4.42-4.96,8.6-9.63,11.72-11.91c3.24-2.36,9.05-4.93,15.24-7.67 c14.89-6.59,33.42-14.8,46.64-32.96c13.12-18.04,15.23-38.14,16.93-54.29c0.71-6.79,1.38-13.2,2.67-17.17 c1.13-3.48,4.37-9.03,7.5-14.4c8.3-14.21,18.62-31.9,18.62-54.9S468.51,190.71,460.21,176.49z M451.58,281.25 c-3.56,6.09-6.92,11.85-8.38,16.35c-1.62,4.97-2.34,11.89-3.11,19.22c-1.57,14.96-3.53,33.58-15.07,49.45 c-11.63,15.99-28.8,23.59-42.63,29.71c-6.66,2.95-12.94,5.73-17.04,8.72c-3.99,2.9-8.51,7.97-13.3,13.34 c-10.11,11.33-22.69,25.42-41.72,31.6c-6.44,2.09-13.47,3.15-20.89,3.15c-10.81,0-21.16-2.2-30.3-4.15 c-7.34-1.56-14.27-3.03-19.72-3.03c-5.44,0-12.38,1.47-19.73,3.04c-9.13,1.94-19.48,4.14-30.29,4.14c-7.42,0-14.45-1.06-20.89-3.15 c-19.03-6.18-31.62-20.27-41.72-31.6c-4.79-5.37-9.31-10.43-13.3-13.34c-4.1-2.98-10.39-5.77-17.07-8.73 c-13.8-6.11-30.97-13.71-42.6-29.7c-11.55-15.87-13.5-34.49-15.07-49.46c-0.77-7.32-1.49-14.24-3.11-19.21 c-1.46-4.5-4.82-10.26-8.38-16.35C19.57,268.07,10,251.69,10,231.39s9.57-36.68,17.26-49.85c3.56-6.09,6.92-11.85,8.38-16.35 c1.61-4.97,2.34-11.88,3.11-19.22c1.57-14.96,3.52-33.59,15.07-49.45c11.63-15.98,28.8-23.59,42.61-29.7 c6.66-2.95,12.96-5.74,17.06-8.73c3.99-2.9,8.51-7.97,13.3-13.33c10.11-11.33,22.69-25.42,41.73-31.6 c6.44-2.09,13.46-3.15,20.89-3.15c10.8,0,21.15,2.2,30.29,4.14c7.34,1.56,14.28,3.04,19.73,3.04s12.38-1.47,19.73-3.04 c9.13-1.94,19.49-4.14,30.29-4.14c7.42,0,14.45,1.06,20.89,3.15c19.03,6.18,31.62,20.27,41.73,31.6c4.79,5.37,9.31,10.43,13.3,13.33 c4.1,2.98,10.39,5.77,17.07,8.73c13.8,6.11,30.97,13.71,42.6,29.7c11.55,15.87,13.5,34.49,15.07,49.45 c0.77,7.32,1.49,14.24,3.11,19.22c1.46,4.51,4.82,10.26,8.38,16.35c7.69,13.17,17.26,29.56,17.26,49.85 C468.84,251.69,459.27,268.08,451.58,281.25z M239.42,184.32c-33.42,0-62.23,34.02-76.43,54.3c-18.98,27.12-33.3,60.1-33.3,76.73 c0,31.63,25.73,57.36,57.36,57.36c0.26,0,0.5-0.01,0.76-0.03l4.56-0.41v-80.84h20.4v61.94h25.77v-71.94h-15.77v-31.1h49.12v118.9 l3.76,0.96c4.56,1.17,10.52,2.5,16.12,2.5c31.63,0,57.37-25.73,57.37-57.36c0-16.63-14.32-49.61-33.3-76.73 C301.65,218.34,272.84,184.32,239.42,184.32z M228.54,291.44v51.94h-5.77v-51.94H228.54z M291.78,362.71 c-3.17,0-6.69-0.59-9.88-1.29V240.34h-69.12v41.1h-30.4v81.04c-23.93-2.36-42.68-22.6-42.68-47.13c0-12.79,11.78-42.84,31.49-70.99 c13.08-18.69,39.34-50.03,68.24-50.03s55.15,31.35,68.24,50.03c19.71,28.16,31.49,58.21,31.49,70.99 C339.15,341.46,317.9,362.71,291.78,362.71z M184.55,169.74c5.4,3.3,11.13,4.98,16.75,4.98c3.24,0,6.45-0.56,9.53-1.69 c8.42-3.09,14.79-10.01,17.93-19.49c3-9.07,2.67-19.48-0.93-29.31c-7.48-20.42-29.61-39.23-46.93-32.89 c-8.39,3.07-14.38,11.37-16.87,23.36c-2.14,10.32-1.28,22.31,2.29,32.06C169.93,156.59,176.4,164.75,184.55,169.74z M173.83,116.74 c1.73-8.35,5.56-14.18,10.51-16c1.17-0.43,2.44-0.63,3.77-0.63c10.43,0,24.84,12.59,30.33,27.57c2.83,7.71,3.12,15.78,0.82,22.72 c-2.16,6.53-6.38,11.23-11.88,13.24c-5.5,2.02-11.76,1.15-17.62-2.44c-6.23-3.81-11.23-10.16-14.05-17.88 C172.76,135.26,172.06,125.31,173.83,116.74z M164.33,213.87c10.91-14.4,5.49-36.93-12.08-50.24c-8.28-6.27-19.49-10.6-29.98-11.57 c-12.19-1.14-21.88,2.16-27.27,9.29c-11.14,14.7,0.37,41.37,17.7,54.5c8.33,6.31,17.92,9.43,26.87,9.43 C149.47,225.27,158.6,221.44,164.33,213.87z M102.96,167.38c2.72-3.59,8-5.54,14.78-5.54c1.16,0,2.36,0.06,3.6,0.17 c8.72,0.81,18.02,4.4,24.87,9.59c13.17,9.98,17.72,26.23,10.15,36.23c-7.58,10-24.46,10.02-37.63,0.04 C104.39,197,96.29,176.19,102.96,167.38z M268,173.03c3.07,1.12,6.23,1.66,9.41,1.66c14.37,0,28.89-10.97,35.1-27.92 c3.57-9.75,4.43-21.74,2.29-32.06c-2.48-11.99-8.47-20.28-16.87-23.36c-8.39-3.07-18.32-0.61-27.96,6.94 c-8.3,6.5-15.39,16.2-18.96,25.95C243.42,144.93,251.05,166.82,268,173.03z M260.39,127.68L260.39,127.68 c2.96-8.07,8.84-16.12,15.74-21.52c6.72-5.26,13.41-7.23,18.36-5.42c4.95,1.81,8.78,7.65,10.51,16c1.78,8.58,1.07,18.52-1.89,26.59 c-5.68,15.52-19.9,24.63-31.67,20.31C259.66,159.33,254.7,143.19,260.39,127.68z M326.58,163.63c-8.34,6.32-14.25,14.9-16.62,24.15 c-2.49,9.67-0.87,18.94,4.54,26.09c5.73,7.57,14.86,11.4,24.77,11.4c8.94,0,18.54-3.12,26.87-9.43 c8.28-6.27,15.48-15.89,19.26-25.73c4.39-11.43,3.84-21.65-1.56-28.77C372.71,146.64,343.92,150.5,326.58,163.63z M376.07,186.52 c-3.14,8.18-9.11,16.16-15.96,21.35c-13.17,9.98-30.05,9.96-37.63-0.04c-3.54-4.67-4.54-10.91-2.83-17.56 c1.82-7.08,6.43-13.71,12.98-18.67c8.32-6.31,19.3-9.68,28.36-9.68c6.54,0,12.09,1.77,14.89,5.46 C379.06,171.58,379.13,178.56,376.07,186.52z M421.72,172.16c-2.35-7.23-3.19-15.29-4.09-23.83c-1.42-13.55-2.89-27.56-10.87-38.52 c-8.06-11.08-20.99-16.8-33.49-22.34c-7.8-3.45-15.17-6.72-21.21-11.12c-5.94-4.32-11.24-10.27-16.86-16.56 c-9.16-10.26-18.62-20.86-31.85-25.16c-12.65-4.11-26.3-1.2-39.5,1.6c-8.16,1.74-16.6,3.53-24.42,3.53 c-7.82,0-16.26-1.79-24.42-3.53c-13.2-2.81-26.86-5.71-39.51-1.6c-13.23,4.29-22.7,14.9-31.85,25.16 c-5.62,6.29-10.92,12.23-16.86,16.56c-6.05,4.4-13.42,7.67-21.21,11.12C93.07,93,80.14,98.72,72.08,109.8 c-7.98,10.96-9.45,24.97-10.87,38.52c-0.9,8.54-1.74,16.61-4.09,23.83c-2.21,6.82-6.17,13.59-10.36,20.77 c-6.97,11.94-14.18,24.28-14.18,38.47s7.21,26.53,14.18,38.47c4.19,7.17,8.14,13.95,10.36,20.77c2.35,7.23,3.19,15.29,4.09,23.83 c1.42,13.55,2.89,27.56,10.87,38.52c8.06,11.08,20.99,16.8,33.48,22.34c7.8,3.45,15.17,6.72,21.22,11.12 c5.94,4.32,11.24,10.26,16.86,16.56c9.16,10.26,18.62,20.87,31.85,25.16c4.53,1.47,9.18,2.04,13.9,2.04 c8.46,0,17.13-1.84,25.61-3.65c8.16-1.73,16.6-3.53,24.42-3.53c7.82,0,16.26,1.79,24.42,3.53c13.2,2.81,26.86,5.71,39.5,1.6 c13.23-4.3,22.7-14.9,31.85-25.16c5.62-6.29,10.92-12.24,16.86-16.56c6.05-4.4,13.42-7.67,21.22-11.12 c12.5-5.54,25.42-11.26,33.48-22.34c7.98-10.96,9.45-24.97,10.87-38.52c0.9-8.54,1.74-16.61,4.09-23.83 c2.21-6.82,6.17-13.59,10.36-20.77c6.97-11.94,14.18-24.28,14.18-38.47s-7.21-26.53-14.18-38.47 C427.89,185.75,423.93,178.97,421.72,172.16z M423.44,264.82c-4.27,7.32-8.69,14.88-11.23,22.72c-2.67,8.23-3.61,17.2-4.52,25.88 c-1.34,12.8-2.61,24.89-9.01,33.68c-6.48,8.91-17.64,13.85-29.45,19.08c-7.93,3.51-16.14,7.15-23.05,12.18 c-6.8,4.95-12.72,11.58-18.44,17.98c-8.65,9.69-16.82,18.85-27.48,22.31c-10.1,3.28-21.87,0.78-34.34-1.87 c-8.67-1.84-17.63-3.75-26.5-3.75s-17.84,1.91-26.5,3.75c-12.46,2.65-24.24,5.15-34.34,1.87c-10.66-3.46-18.83-12.62-27.48-22.31 c-5.72-6.41-11.63-13.03-18.43-17.98c-6.91-5.03-15.12-8.66-23.05-12.18C97.8,360.94,86.65,356,80.16,347.09 c-6.4-8.79-7.67-20.88-9.01-33.68c-0.91-8.68-1.85-17.65-4.52-25.88c-2.55-7.84-6.96-15.4-11.23-22.72 c-6.59-11.29-12.81-21.95-12.81-33.43c0-11.48,6.22-22.14,12.81-33.43c4.27-7.32,8.69-14.88,11.23-22.72 c2.67-8.23,3.61-17.2,4.52-25.88c1.34-12.8,2.61-24.89,9.01-33.68c6.48-8.91,17.64-13.85,29.45-19.08 c7.93-3.51,16.14-7.15,23.05-12.18c6.8-4.95,12.72-11.58,18.43-17.98c8.65-9.69,16.82-18.85,27.48-22.31 c10.1-3.28,21.87-0.78,34.34,1.87c8.67,1.84,17.63,3.75,26.5,3.75s17.84-1.91,26.5-3.75c12.46-2.65,24.24-5.15,34.34-1.87 c10.66,3.46,18.83,12.61,27.48,22.31c5.72,6.41,11.63,13.03,18.43,17.98c6.91,5.03,15.12,8.66,23.05,12.18 c11.81,5.23,22.97,10.17,29.45,19.08c6.4,8.79,7.67,20.88,9.01,33.68c0.91,8.68,1.85,17.65,4.52,25.88 c2.55,7.84,6.96,15.4,11.23,22.72c6.59,11.29,12.81,21.95,12.81,33.43C436.25,242.87,430.03,253.53,423.44,264.82z" fill="#5e5343"/></g></svg>